<?xml version="1.0" encoding="UTF-8"?>
<svg width="32" height="32" viewBox="0 0 32 32" fill="none" xmlns="http://www.w3.org/2000/svg">
    <rect width="32" height="32" rx="6" fill="#0f70d7"/>
    <path d="M16 7C11.0294 7 7 11.0294 7 16C7 20.9706 11.0294 25 16 25C20.9706 25 25 20.9706 25 16C25 11.0294 20.9706 7 16 7ZM12.5 18.5C11.3954 18.5 10.5 17.6046 10.5 16.5V15.5C10.5 14.3954 11.3954 13.5 12.5 13.5H19.5C20.6046 13.5 21.5 14.3954 21.5 15.5V16.5C21.5 17.6046 20.6046 18.5 19.5 18.5H12.5Z" fill="white"/>
</svg>
